<?xml version="1.0" encoding="UTF-8"?>
<svg id="Capa_1" data-name="Capa 1" xmlns="http://www.w3.org/2000/svg" viewBox="0 0 314.26 433.24">
  <defs>
    <style>
      .cls-1 {
        fill: none;
      }

      .cls-1, .cls-2 {
        stroke: #000e00;
        stroke-width: 4px;
      }

      .cls-1, .cls-2, .cls-3, .cls-4, .cls-5 {
        stroke-miterlimit: 10;
      }

      .cls-2 {
        fill: #fe0;
      }

      .cls-3 {
        fill: #ea5049;
        stroke-width: 2px;
      }

      .cls-3, .cls-4, .cls-5 {
        stroke: #1d1d1b;
      }

      .cls-4 {
        fill: #fff;
      }

      .cls-6 {
        fill: #1d1d1b;
      }

      .cls-5 {
        fill: #364495;
      }
    </style>
  </defs>
  <path class="cls-3" d="m301.44,46.18c2.1,4.38,6.78,6.81,11.63,6.58.06,0,.13,0,.19-.02v13.5c-.07,0-.14-.01-.21-.02-4.84-.2-9.51,2.2-11.61,6.57-4.58,9.55,2.27,18.95,11.31,18.95.17,0,.34,0,.51-.02v13.5c-.07,0-.13-.01-.2-.02-4.85-.21-9.52,2.21-11.62,6.58-4.58,9.56,2.27,18.94,11.31,18.94.17,0,.34,0,.51-.02v13.51c-.07,0-.14-.01-.21-.02-4.84-.2-9.51,2.2-11.61,6.57-4.58,9.55,2.27,18.95,11.31,18.95.17,0,.34,0,.51-.02v13.5c-.07,0-.13-.01-.2-.02-4.85-.21-9.52,2.21-11.62,6.58-4.58,9.56,2.27,18.94,11.31,18.94.17,0,.34,0,.51-.02v13.5c-.06,0-.13-.01-.19-.02-4.85-.23-9.53,2.2-11.63,6.58-4.59,9.55,2.27,18.95,11.31,18.95.17,0,.34,0,.51-.02v13.5c-.07,0-.14-.01-.21-.02-4.84-.2-9.51,2.2-11.61,6.57-4.58,9.55,2.27,18.95,11.31,18.95.17,0,.34,0,.51-.02v13.5c-.07,0-.13-.01-.2-.02-4.85-.21-9.52,2.21-11.62,6.58-4.58,9.56,2.27,18.94,11.31,18.94.17,0,.34,0,.51-.02v13.51c-.07,0-.14-.01-.21-.02-4.84-.2-9.51,2.2-11.61,6.57-4.58,9.55,2.27,18.95,11.31,18.95.17,0,.34,0,.51-.02v13.5c-.07,0-.13-.01-.2-.02-4.85-.21-9.52,2.21-11.62,6.58-4.58,9.56,2.27,18.94,11.31,18.94.17,0,.34,0,.51-.02v28.55h-26.74c.18-.96.24-1.95.19-2.96-.33-6.55-5.81-11.9-12.36-12.1-7.23-.22-13.16,5.57-13.16,12.75,0,.78.07,1.55.21,2.3h-13.89c.18-.96.24-1.96.19-2.97-.33-6.54-5.81-11.89-12.35-12.08-7.23-.21-13.16,5.57-13.16,12.75,0,.78.07,1.55.21,2.3h-13.88c.18-.96.24-1.95.19-2.96-.33-6.55-5.81-11.9-12.36-12.1-7.23-.22-13.16,5.57-13.16,12.75,0,.78.07,1.55.21,2.3h-13.89c.18-.96.24-1.96.19-2.97-.33-6.54-5.81-11.89-12.35-12.08-7.23-.21-13.16,5.57-13.16,12.75,0,.78.07,1.55.21,2.3h-13.88c.18-.96.24-1.95.19-2.96-.33-6.55-5.81-11.9-12.36-12.1-7.23-.22-13.16,5.57-13.16,12.75,0,.78.07,1.55.21,2.3h-13.88c.18-.96.24-1.95.19-2.96-.33-6.54-5.8-11.9-12.35-12.1-7.23-.22-13.17,5.57-13.17,12.75,0,.78.07,1.55.21,2.3h-13.88c.18-.96.24-1.96.19-2.97-.33-6.54-5.81-11.89-12.36-12.08-7.22-.21-13.15,5.58-13.15,12.75,0,.78.07,1.55.21,2.3H1v-28.53c7.05,0,12.77-5.71,12.77-12.76s-5.72-12.77-12.77-12.77v-13.46c7.05,0,12.77-5.72,12.77-12.77s-5.72-12.76-12.77-12.76v-13.47c7.05,0,12.77-5.71,12.77-12.76s-5.72-12.77-12.77-12.77v-13.46c7.05,0,12.77-5.72,12.77-12.77s-5.72-12.76-12.77-12.76v-13.46c7.05,0,12.77-5.72,12.77-12.77s-5.72-12.77-12.77-12.77v-13.46c7.05,0,12.77-5.71,12.77-12.76s-5.72-12.77-12.77-12.77v-13.46c7.05,0,12.77-5.72,12.77-12.77s-5.72-12.76-12.77-12.76v-13.47c7.05,0,12.77-5.71,12.77-12.76s-5.72-12.77-12.77-12.77v-13.46c7.05,0,12.77-5.72,12.77-12.77s-5.72-12.76-12.77-12.76v-13.46c7.05,0,12.77-5.72,12.77-12.77s-5.72-12.77-12.77-12.77V1h26.23c0,7.06,5.72,12.77,12.77,12.77s12.76-5.71,12.76-12.77h13.46c0,7.06,5.72,12.77,12.77,12.77s12.77-5.71,12.77-12.77h13.46c0,7.06,5.71,12.77,12.76,12.77s12.77-5.71,12.77-12.77h13.46c0,7.06,5.72,12.77,12.77,12.77s12.76-5.71,12.76-12.77h13.47c0,7.06,5.71,12.77,12.76,12.77s12.77-5.71,12.77-12.77h13.46c0,7.06,5.72,12.77,12.77,12.77s12.76-5.71,12.76-12.77h13.47c0,7.06,5.71,12.77,12.76,12.77s12.77-5.71,12.77-12.77h26.53v26.25c-.17-.02-.34-.02-.51-.02-9.04,0-15.89,9.4-11.31,18.95Z"/>
  <rect class="cls-4" x="29.13" y="31.17" width="255.32" height="371.23"/>
  <rect class="cls-5" x="44.62" y="53.03" width="225.02" height="327.18"/>
  <g>
    <path class="cls-2" d="m225.58,208.67c-8.75,8.64-21.35,7.71-27.01,7.3-15.85-1.17-26.92-10.01-27.73-8.76-1.17,1.78,25.49,13.37,27.73,32.49,1.31,11.13-5.55,25.69-17.15,28.83-8.96,2.43-16.79-3.02-17.15-3.29-8.61-6.2-9.36-17.61-9.85-25.18-1.06-16.08,4.37-27.74,4.07-30.95-.04-.41-.17-.69-.42-.81-.41-.2-1.03.05-1.77.62-.58.45-1.24,1.1-1.95,1.86-.1.11-.21.2-.33.27-6.14,3.59-15.02,10.97-21.13,14.04-7.72,3.87-16.8,8.58-26.28,4.75-8.38-3.39-15.45-11.76-15.33-21.16.12-9.94,8.2-16.23,13.14-20.08,3.1-2.41,11.51-8.21,22.99-8.39,14.85-.24,26.01,9.08,26.65,8.03.64-1.07-13.02-6.84-20.44-20.44-1.84-3.37-7.03-12.88-4.02-24.09.61-2.25,4.46-15.43,17.15-18.98,9.08-2.54,18.34,1.04,23.73,6.57,7.58,7.78,7.05,18.97,6.57,29.2-.88,18.37-7.68,29.49-5.11,31.03,3.38,2.02,12.84-18.8,31.75-22.27,8.34-1.53,21.44-.22,27.38,9.12,6.08,9.56,1.82,23.09-5.48,30.3Z"/>
    <path class="cls-1" d="m92.33,360.96c1.89-23.67,6.45-42.88,10.5-56.47,4.82-16.13,16.9-45.87,39.83-79.23,8.03-11.67,8.14-11.54,12.99-14.96,2.01-1.16.71-.6,2.08-.84.29-.06.55-.33,1.14-.85"/>
  </g>
  <path class="cls-6" d="m143.73,217.08c-.42-.78,2.04-3.36,12.04-10.17-.08,1.08-.42,3.85-2.53,6.36-3.33,3.96-8.98,4.79-9.51,3.81Z"/>
</svg>